<svg id="Capa_1" data-name="Capa 1" xmlns="http://www.w3.org/2000/svg" viewBox="0 0 196.48 51.58"><defs><style>.cls-1{fill:#2993c6;}</style></defs><path class="cls-1" d="M59.78,15.88H66.5l2.13,13.87.78,5.4h.18l2.8-5.4L80,15.88h6.72l-6,30.06h-6L77.21,34c.63-3,1.8-7.13,2.74-10.06H79.8l-3.71,6.93L69,43.19H66.46L64.28,30.87l-1-6.93h-.15C62.9,26.88,62.56,31.05,62,34L59.56,45.94H53.77Z" transform="translate(-6.5 -4.16)"/><path class="cls-1" d="M91.83,23.06h6.3L93.55,45.94h-6.3Zm.93-6.46a3.86,3.86,0,0,1,3.94-3.74,3.17,3.17,0,0,1,3.42,3.05,3.76,3.76,0,0,1-3.94,3.73C94.45,19.64,92.76,18.63,92.76,16.6Z" transform="translate(-6.5 -4.16)"/><path class="cls-1" d="M115.26,15.88h6.32l-5,24.76H128l-1,5.3H109.25Z" transform="translate(-6.5 -4.16)"/><path class="cls-1" d="M131.53,37.06c0-8.81,6.52-14.55,12.81-14.55,5.34,0,8.89,3.74,8.89,9.43,0,8.81-6.52,14.55-12.82,14.55C135.07,46.49,131.53,42.75,131.53,37.06Zm15.31-5c0-2.79-1.07-4.48-3.2-4.48-3.08,0-5.73,4-5.73,9.36,0,2.79,1.07,4.48,3.2,4.48C144.19,41.42,146.84,37.4,146.84,32.06Z" transform="translate(-6.5 -4.16)"/><path class="cls-1" d="M154.18,52.55l2.73-4.21a9.87,9.87,0,0,0,5.88,2.4c3,0,5-1.68,5.9-4.79l1.18-4.05a9.88,9.88,0,0,1-7,3.31c-3.86,0-6.67-2.61-6.67-8,0-8.21,5.67-14.71,11.94-14.71a5.49,5.49,0,0,1,4.9,3h.11l1-2.45h5.13l-4.51,22.51c-1.37,6.77-5.68,10.17-12.11,10.17A14,14,0,0,1,154.18,52.55Zm16-15.45,1.41-7.25a3.49,3.49,0,0,0-3-2.19c-3.13,0-5.85,3.8-5.85,8.75,0,2.49,1,3.65,2.58,3.65A5.77,5.77,0,0,0,170.15,37.1Z" transform="translate(-6.5 -4.16)"/><path class="cls-1" d="M181.28,37.06c0-8.81,6.52-14.55,12.82-14.55,5.34,0,8.88,3.74,8.88,9.43,0,8.81-6.52,14.55-12.82,14.55C184.83,46.49,181.28,42.75,181.28,37.06Zm15.32-5c0-2.79-1.07-4.48-3.2-4.48-3.08,0-5.74,4-5.74,9.36,0,2.79,1.08,4.48,3.2,4.48C193.94,41.42,196.6,37.4,196.6,32.06Z" transform="translate(-6.5 -4.16)"/><path class="cls-1" d="M40.5,44.61c0,9.39-7.55-.51-16.94-.51S6.5,54,6.5,44.61a17,17,0,0,1,34,0Z" transform="translate(-6.5 -4.16)"/><circle class="cls-1" cx="17" cy="10.38" r="10.38"/></svg>